<svg width="495" height="80" viewBox="0 0 495 80" fill="none" xmlns="http://www.w3.org/2000/svg">
<rect x="415" width="24" height="80" fill="#50A060"/>
<rect x="443" width="24" height="80" fill="#7CB888"/>
<rect x="471" width="24" height="80" fill="#A7CFAF"/>
<path d="M3.66211 58.2422V51.2109C7.86133 52.7734 12.6074 53.5547 17.9004 53.5547C24.3262 53.5547 27.5391 51.4062 27.5391 47.1094C27.5391 43.9844 25.5664 42.4219 21.6211 42.4219H15.0586C6.48438 42.4219 2.19727 38.5156 2.19727 30.7031C2.19727 22.1094 8.30078 17.8125 20.5078 17.8125C25.1953 17.8125 29.6387 18.4961 33.8379 19.8633V26.8945C29.6387 25.332 25.1953 24.5508 20.5078 24.5508C13.4766 24.5508 9.96094 26.6016 9.96094 30.7031C9.96094 33.8281 11.6602 35.3906 15.0586 35.3906H21.6211C30.7422 35.3906 35.3027 39.2969 35.3027 47.1094C35.3027 55.8984 29.502 60.293 17.9004 60.293C12.6074 60.293 7.86133 59.6094 3.66211 58.2422ZM48.4863 38.9355C48.4863 48.6816 52.8125 53.5547 61.4648 53.5547C69.9023 53.5547 74.1211 48.6816 74.1211 38.9355C74.1211 29.3457 69.9023 24.5508 61.4648 24.5508C52.8125 24.5508 48.4863 29.3457 48.4863 38.9355ZM40.4297 39.1113C40.4297 24.9121 47.4414 17.8125 61.4648 17.8125C75.2734 17.8125 82.1777 24.9121 82.1777 39.1113C82.1777 53.2324 75.2734 60.293 61.4648 60.293C48.0664 60.293 41.0547 53.2324 40.4297 39.1113ZM97.2949 18.1055V53.2617H113.936V60H89.5312V18.1055H97.2949ZM127.881 38.9355C127.881 48.6816 132.207 53.5547 140.859 53.5547C149.297 53.5547 153.516 48.6816 153.516 38.9355C153.516 29.3457 149.297 24.5508 140.859 24.5508C132.207 24.5508 127.881 29.3457 127.881 38.9355ZM119.824 39.1113C119.824 24.9121 126.836 17.8125 140.859 17.8125C154.668 17.8125 161.572 24.9121 161.572 39.1113C161.572 53.2324 154.668 60.293 140.859 60.293C127.461 60.293 120.449 53.2324 119.824 39.1113ZM202.324 58.2422C198.711 59.6094 194.609 60.293 190.02 60.293C174.98 60.293 167.461 53.0176 167.461 38.4668C167.461 24.6973 174.98 17.8125 190.02 17.8125C194.609 17.8125 198.711 18.4961 202.324 19.8633V26.8945C198.711 25.332 194.805 24.5508 190.605 24.5508C180.547 24.5508 175.518 29.1895 175.518 38.4668C175.518 48.5254 180.547 53.5547 190.605 53.5547C194.805 53.5547 198.711 52.7734 202.324 51.2109V58.2422ZM217.412 18.1055V60H209.648V18.1055H217.412ZM254.912 18.1055V24.7852H233.936V35.332H253.916V42.2754H233.848V53.2617H255.322V60H226.23V18.1055H254.912ZM262.5 60V18.1055H270.264L292.383 48.6328V18.1055H299.854V60H292.09L269.971 28.8281V60H262.5ZM342.07 58.2422C338.457 59.6094 334.355 60.293 329.766 60.293C314.727 60.293 307.207 53.0176 307.207 38.4668C307.207 24.6973 314.727 17.8125 329.766 17.8125C334.355 17.8125 338.457 18.4961 342.07 19.8633V26.8945C338.457 25.332 334.551 24.5508 330.352 24.5508C320.293 24.5508 315.264 29.1895 315.264 38.4668C315.264 48.5254 320.293 53.5547 330.352 53.5547C334.551 53.5547 338.457 52.7734 342.07 51.2109V58.2422ZM357.158 18.1055V60H349.395V18.1055H357.158ZM370.283 60H362.314L380.098 18.1055H388.447L406.611 60H398.262L393.486 48.5742H379.57L382.236 41.8359H390.674L384.082 26.1035L370.283 60Z" fill="#50A060"/>
</svg>
