<svg width="547" height="120" viewBox="0 0 547 120" fill="none" xmlns="http://www.w3.org/2000/svg">
<rect x="427" width="36" height="120" fill="#50A060"/>
<rect x="469" width="36" height="120" fill="#7CB888"/>
<rect x="511" width="36" height="120" fill="#A7CFAF"/>
<path d="M109.547 108.156C109.26 108.281 109 108.398 108.766 108.508C108.536 108.617 108.234 108.732 107.859 108.852C107.542 108.951 107.195 109.034 106.82 109.102C106.451 109.174 106.042 109.211 105.594 109.211C104.75 109.211 103.982 109.094 103.289 108.859C102.602 108.62 102.003 108.247 101.492 107.742C100.992 107.247 100.602 106.62 100.32 105.859C100.039 105.094 99.8984 104.206 99.8984 103.195C99.8984 102.237 100.034 101.38 100.305 100.625C100.576 99.8698 100.966 99.2318 101.477 98.7109C101.971 98.2057 102.568 97.8203 103.266 97.5547C103.969 97.2891 104.747 97.1562 105.602 97.1562C106.227 97.1562 106.849 97.2318 107.469 97.3828C108.094 97.5339 108.786 97.7995 109.547 98.1797V100.016H109.43C108.789 99.4792 108.154 99.0885 107.523 98.8438C106.893 98.599 106.219 98.4766 105.5 98.4766C104.911 98.4766 104.38 98.5729 103.906 98.7656C103.438 98.9531 103.018 99.2474 102.648 99.6484C102.289 100.039 102.008 100.534 101.805 101.133C101.607 101.727 101.508 102.414 101.508 103.195C101.508 104.013 101.617 104.716 101.836 105.305C102.06 105.893 102.346 106.372 102.695 106.742C103.06 107.128 103.484 107.414 103.969 107.602C104.458 107.784 104.974 107.875 105.516 107.875C106.26 107.875 106.958 107.747 107.609 107.492C108.26 107.237 108.87 106.854 109.438 106.344H109.547V108.156ZM113.195 98.8125H111.539V97.2891H113.195V98.8125ZM113.102 109H111.633V100.273H113.102V109ZM123.312 104.789H116.883C116.883 105.326 116.964 105.794 117.125 106.195C117.286 106.591 117.508 106.917 117.789 107.172C118.06 107.422 118.38 107.609 118.75 107.734C119.125 107.859 119.536 107.922 119.984 107.922C120.578 107.922 121.174 107.805 121.773 107.57C122.378 107.331 122.807 107.096 123.062 106.867H123.141V108.469C122.646 108.677 122.141 108.852 121.625 108.992C121.109 109.133 120.568 109.203 120 109.203C118.552 109.203 117.422 108.812 116.609 108.031C115.797 107.245 115.391 106.13 115.391 104.688C115.391 103.26 115.779 102.128 116.555 101.289C117.336 100.451 118.362 100.031 119.633 100.031C120.81 100.031 121.716 100.375 122.352 101.062C122.992 101.75 123.312 102.727 123.312 103.992V104.789ZM121.883 103.664C121.878 102.893 121.682 102.297 121.297 101.875C120.917 101.453 120.336 101.242 119.555 101.242C118.768 101.242 118.141 101.474 117.672 101.938C117.208 102.401 116.945 102.977 116.883 103.664H121.883ZM132.836 109H131.367V104.031C131.367 103.63 131.344 103.255 131.297 102.906C131.25 102.552 131.164 102.276 131.039 102.078C130.909 101.859 130.721 101.698 130.477 101.594C130.232 101.484 129.914 101.43 129.523 101.43C129.122 101.43 128.703 101.529 128.266 101.727C127.828 101.924 127.409 102.177 127.008 102.484V109H125.539V100.273H127.008V101.242C127.466 100.862 127.94 100.565 128.43 100.352C128.919 100.138 129.422 100.031 129.938 100.031C130.88 100.031 131.599 100.315 132.094 100.883C132.589 101.451 132.836 102.268 132.836 103.336V109ZM142.117 108.453C141.628 108.688 141.161 108.87 140.719 109C140.281 109.13 139.815 109.195 139.32 109.195C138.69 109.195 138.112 109.104 137.586 108.922C137.06 108.734 136.609 108.453 136.234 108.078C135.854 107.703 135.56 107.229 135.352 106.656C135.143 106.083 135.039 105.414 135.039 104.648C135.039 103.221 135.43 102.102 136.211 101.289C136.997 100.477 138.034 100.07 139.32 100.07C139.82 100.07 140.31 100.141 140.789 100.281C141.273 100.422 141.716 100.594 142.117 100.797V102.43H142.039C141.591 102.081 141.128 101.812 140.648 101.625C140.174 101.438 139.711 101.344 139.258 101.344C138.424 101.344 137.766 101.625 137.281 102.188C136.802 102.745 136.562 103.565 136.562 104.648C136.562 105.701 136.797 106.51 137.266 107.078C137.74 107.641 138.404 107.922 139.258 107.922C139.555 107.922 139.857 107.883 140.164 107.805C140.471 107.727 140.747 107.625 140.992 107.5C141.206 107.391 141.406 107.276 141.594 107.156C141.781 107.031 141.93 106.924 142.039 106.836H142.117V108.453ZM145.586 98.8125H143.93V97.2891H145.586V98.8125ZM145.492 109H144.023V100.273H145.492V109ZM155.18 109H153.719V108.07C153.589 108.159 153.411 108.284 153.188 108.445C152.969 108.602 152.755 108.727 152.547 108.82C152.302 108.94 152.021 109.039 151.703 109.117C151.385 109.201 151.013 109.242 150.586 109.242C149.799 109.242 149.133 108.982 148.586 108.461C148.039 107.94 147.766 107.276 147.766 106.469C147.766 105.807 147.906 105.273 148.188 104.867C148.474 104.456 148.88 104.133 149.406 103.898C149.938 103.664 150.576 103.505 151.32 103.422C152.065 103.339 152.865 103.276 153.719 103.234V103.008C153.719 102.674 153.659 102.398 153.539 102.18C153.424 101.961 153.258 101.789 153.039 101.664C152.831 101.544 152.581 101.464 152.289 101.422C151.997 101.38 151.693 101.359 151.375 101.359C150.99 101.359 150.56 101.411 150.086 101.516C149.612 101.615 149.122 101.76 148.617 101.953H148.539V100.461C148.826 100.383 149.24 100.297 149.781 100.203C150.323 100.109 150.857 100.062 151.383 100.062C151.997 100.062 152.531 100.115 152.984 100.219C153.443 100.318 153.839 100.49 154.172 100.734C154.5 100.974 154.75 101.284 154.922 101.664C155.094 102.044 155.18 102.516 155.18 103.078V109ZM153.719 106.852V104.422C153.271 104.448 152.742 104.487 152.133 104.539C151.529 104.591 151.049 104.667 150.695 104.766C150.273 104.885 149.932 105.073 149.672 105.328C149.411 105.578 149.281 105.924 149.281 106.367C149.281 106.867 149.432 107.245 149.734 107.5C150.036 107.75 150.497 107.875 151.117 107.875C151.633 107.875 152.104 107.776 152.531 107.578C152.958 107.375 153.354 107.133 153.719 106.852ZM170.938 104.789H164.508C164.508 105.326 164.589 105.794 164.75 106.195C164.911 106.591 165.133 106.917 165.414 107.172C165.685 107.422 166.005 107.609 166.375 107.734C166.75 107.859 167.161 107.922 167.609 107.922C168.203 107.922 168.799 107.805 169.398 107.57C170.003 107.331 170.432 107.096 170.688 106.867H170.766V108.469C170.271 108.677 169.766 108.852 169.25 108.992C168.734 109.133 168.193 109.203 167.625 109.203C166.177 109.203 165.047 108.812 164.234 108.031C163.422 107.245 163.016 106.13 163.016 104.688C163.016 103.26 163.404 102.128 164.18 101.289C164.961 100.451 165.987 100.031 167.258 100.031C168.435 100.031 169.341 100.375 169.977 101.062C170.617 101.75 170.938 102.727 170.938 103.992V104.789ZM169.508 103.664C169.503 102.893 169.307 102.297 168.922 101.875C168.542 101.453 167.961 101.242 167.18 101.242C166.393 101.242 165.766 101.474 165.297 101.938C164.833 102.401 164.57 102.977 164.508 103.664H169.508ZM180.461 109H178.992V104.031C178.992 103.63 178.969 103.255 178.922 102.906C178.875 102.552 178.789 102.276 178.664 102.078C178.534 101.859 178.346 101.698 178.102 101.594C177.857 101.484 177.539 101.43 177.148 101.43C176.747 101.43 176.328 101.529 175.891 101.727C175.453 101.924 175.034 102.177 174.633 102.484V109H173.164V100.273H174.633V101.242C175.091 100.862 175.565 100.565 176.055 100.352C176.544 100.138 177.047 100.031 177.562 100.031C178.505 100.031 179.224 100.315 179.719 100.883C180.214 101.451 180.461 102.268 180.461 103.336V109ZM195.695 109H194.234V108.07C194.104 108.159 193.927 108.284 193.703 108.445C193.484 108.602 193.271 108.727 193.062 108.82C192.818 108.94 192.536 109.039 192.219 109.117C191.901 109.201 191.529 109.242 191.102 109.242C190.315 109.242 189.648 108.982 189.102 108.461C188.555 107.94 188.281 107.276 188.281 106.469C188.281 105.807 188.422 105.273 188.703 104.867C188.99 104.456 189.396 104.133 189.922 103.898C190.453 103.664 191.091 103.505 191.836 103.422C192.581 103.339 193.38 103.276 194.234 103.234V103.008C194.234 102.674 194.174 102.398 194.055 102.18C193.94 101.961 193.773 101.789 193.555 101.664C193.346 101.544 193.096 101.464 192.805 101.422C192.513 101.38 192.208 101.359 191.891 101.359C191.505 101.359 191.076 101.411 190.602 101.516C190.128 101.615 189.638 101.76 189.133 101.953H189.055V100.461C189.341 100.383 189.755 100.297 190.297 100.203C190.839 100.109 191.372 100.062 191.898 100.062C192.513 100.062 193.047 100.115 193.5 100.219C193.958 100.318 194.354 100.49 194.688 100.734C195.016 100.974 195.266 101.284 195.438 101.664C195.609 102.044 195.695 102.516 195.695 103.078V109ZM194.234 106.852V104.422C193.786 104.448 193.258 104.487 192.648 104.539C192.044 104.591 191.565 104.667 191.211 104.766C190.789 104.885 190.448 105.073 190.188 105.328C189.927 105.578 189.797 105.924 189.797 106.367C189.797 106.867 189.948 107.245 190.25 107.5C190.552 107.75 191.013 107.875 191.633 107.875C192.148 107.875 192.62 107.776 193.047 107.578C193.474 107.375 193.87 107.133 194.234 106.852ZM204.977 108.453C204.487 108.688 204.021 108.87 203.578 109C203.141 109.13 202.674 109.195 202.18 109.195C201.549 109.195 200.971 109.104 200.445 108.922C199.919 108.734 199.469 108.453 199.094 108.078C198.714 107.703 198.419 107.229 198.211 106.656C198.003 106.083 197.898 105.414 197.898 104.648C197.898 103.221 198.289 102.102 199.07 101.289C199.857 100.477 200.893 100.07 202.18 100.07C202.68 100.07 203.169 100.141 203.648 100.281C204.133 100.422 204.576 100.594 204.977 100.797V102.43H204.898C204.451 102.081 203.987 101.812 203.508 101.625C203.034 101.438 202.57 101.344 202.117 101.344C201.284 101.344 200.625 101.625 200.141 102.188C199.661 102.745 199.422 103.565 199.422 104.648C199.422 105.701 199.656 106.51 200.125 107.078C200.599 107.641 201.263 107.922 202.117 107.922C202.414 107.922 202.716 107.883 203.023 107.805C203.331 107.727 203.607 107.625 203.852 107.5C204.065 107.391 204.266 107.276 204.453 107.156C204.641 107.031 204.789 106.924 204.898 106.836H204.977V108.453ZM213.32 108.453C212.831 108.688 212.365 108.87 211.922 109C211.484 109.13 211.018 109.195 210.523 109.195C209.893 109.195 209.315 109.104 208.789 108.922C208.263 108.734 207.812 108.453 207.438 108.078C207.057 107.703 206.763 107.229 206.555 106.656C206.346 106.083 206.242 105.414 206.242 104.648C206.242 103.221 206.633 102.102 207.414 101.289C208.201 100.477 209.237 100.07 210.523 100.07C211.023 100.07 211.513 100.141 211.992 100.281C212.477 100.422 212.919 100.594 213.32 100.797V102.43H213.242C212.794 102.081 212.331 101.812 211.852 101.625C211.378 101.438 210.914 101.344 210.461 101.344C209.628 101.344 208.969 101.625 208.484 102.188C208.005 102.745 207.766 103.565 207.766 104.648C207.766 105.701 208 106.51 208.469 107.078C208.943 107.641 209.607 107.922 210.461 107.922C210.758 107.922 211.06 107.883 211.367 107.805C211.674 107.727 211.951 107.625 212.195 107.5C212.409 107.391 212.609 107.276 212.797 107.156C212.984 107.031 213.133 106.924 213.242 106.836H213.32V108.453ZM216.789 98.8125H215.133V97.2891H216.789V98.8125ZM216.695 109H215.227V100.273H216.695V109ZM227.039 104.641C227.039 106.062 226.674 107.185 225.945 108.008C225.216 108.831 224.24 109.242 223.016 109.242C221.781 109.242 220.799 108.831 220.07 108.008C219.346 107.185 218.984 106.062 218.984 104.641C218.984 103.219 219.346 102.096 220.07 101.273C220.799 100.445 221.781 100.031 223.016 100.031C224.24 100.031 225.216 100.445 225.945 101.273C226.674 102.096 227.039 103.219 227.039 104.641ZM225.523 104.641C225.523 103.51 225.302 102.672 224.859 102.125C224.417 101.573 223.802 101.297 223.016 101.297C222.219 101.297 221.599 101.573 221.156 102.125C220.719 102.672 220.5 103.51 220.5 104.641C220.5 105.734 220.721 106.565 221.164 107.133C221.607 107.695 222.224 107.977 223.016 107.977C223.797 107.977 224.409 107.698 224.852 107.141C225.299 106.578 225.523 105.745 225.523 104.641ZM225.445 95.9062L223.312 98.8281H222.148L223.547 95.9062H225.445ZM236.617 109H235.148V104.031C235.148 103.63 235.125 103.255 235.078 102.906C235.031 102.552 234.945 102.276 234.82 102.078C234.69 101.859 234.503 101.698 234.258 101.594C234.013 101.484 233.695 101.43 233.305 101.43C232.904 101.43 232.484 101.529 232.047 101.727C231.609 101.924 231.19 102.177 230.789 102.484V109H229.32V100.273H230.789V101.242C231.247 100.862 231.721 100.565 232.211 100.352C232.701 100.138 233.203 100.031 233.719 100.031C234.661 100.031 235.38 100.315 235.875 100.883C236.37 101.451 236.617 102.268 236.617 103.336V109ZM242.492 106.773L240.289 111.891H239.148L240.508 106.773H242.492ZM263.633 109H262.164V104.031C262.164 103.656 262.146 103.294 262.109 102.945C262.078 102.596 262.008 102.318 261.898 102.109C261.779 101.885 261.607 101.716 261.383 101.602C261.159 101.487 260.836 101.43 260.414 101.43C260.003 101.43 259.591 101.534 259.18 101.742C258.768 101.945 258.357 102.206 257.945 102.523C257.961 102.643 257.974 102.784 257.984 102.945C257.995 103.102 258 103.258 258 103.414V109H256.531V104.031C256.531 103.646 256.513 103.281 256.477 102.938C256.445 102.589 256.375 102.31 256.266 102.102C256.146 101.878 255.974 101.711 255.75 101.602C255.526 101.487 255.203 101.43 254.781 101.43C254.38 101.43 253.977 101.529 253.57 101.727C253.169 101.924 252.768 102.177 252.367 102.484V109H250.898V100.273H252.367V101.242C252.826 100.862 253.281 100.565 253.734 100.352C254.193 100.138 254.68 100.031 255.195 100.031C255.789 100.031 256.292 100.156 256.703 100.406C257.12 100.656 257.43 101.003 257.633 101.445C258.227 100.945 258.768 100.586 259.258 100.367C259.747 100.143 260.271 100.031 260.828 100.031C261.786 100.031 262.492 100.323 262.945 100.906C263.404 101.484 263.633 102.294 263.633 103.336V109ZM273.766 104.789H267.336C267.336 105.326 267.417 105.794 267.578 106.195C267.74 106.591 267.961 106.917 268.242 107.172C268.513 107.422 268.833 107.609 269.203 107.734C269.578 107.859 269.99 107.922 270.438 107.922C271.031 107.922 271.628 107.805 272.227 107.57C272.831 107.331 273.26 107.096 273.516 106.867H273.594V108.469C273.099 108.677 272.594 108.852 272.078 108.992C271.562 109.133 271.021 109.203 270.453 109.203C269.005 109.203 267.875 108.812 267.062 108.031C266.25 107.245 265.844 106.13 265.844 104.688C265.844 103.26 266.232 102.128 267.008 101.289C267.789 100.451 268.815 100.031 270.086 100.031C271.263 100.031 272.169 100.375 272.805 101.062C273.445 101.75 273.766 102.727 273.766 103.992V104.789ZM272.336 103.664C272.331 102.893 272.135 102.297 271.75 101.875C271.37 101.453 270.789 101.242 270.008 101.242C269.221 101.242 268.594 101.474 268.125 101.938C267.661 102.401 267.398 102.977 267.336 103.664H272.336ZM283.289 109H281.82V104.031C281.82 103.63 281.797 103.255 281.75 102.906C281.703 102.552 281.617 102.276 281.492 102.078C281.362 101.859 281.174 101.698 280.93 101.594C280.685 101.484 280.367 101.43 279.977 101.43C279.576 101.43 279.156 101.529 278.719 101.727C278.281 101.924 277.862 102.177 277.461 102.484V109H275.992V100.273H277.461V101.242C277.919 100.862 278.393 100.565 278.883 100.352C279.372 100.138 279.875 100.031 280.391 100.031C281.333 100.031 282.052 100.315 282.547 100.883C283.042 101.451 283.289 102.268 283.289 103.336V109ZM290.648 108.922C290.372 108.995 290.07 109.055 289.742 109.102C289.419 109.148 289.13 109.172 288.875 109.172C287.984 109.172 287.307 108.932 286.844 108.453C286.38 107.974 286.148 107.206 286.148 106.148V101.508H285.156V100.273H286.148V97.7656H287.617V100.273H290.648V101.508H287.617V105.484C287.617 105.943 287.628 106.302 287.648 106.562C287.669 106.818 287.742 107.057 287.867 107.281C287.982 107.49 288.138 107.643 288.336 107.742C288.539 107.836 288.846 107.883 289.258 107.883C289.497 107.883 289.747 107.849 290.008 107.781C290.268 107.708 290.456 107.648 290.57 107.602H290.648V108.922ZM299.734 104.789H293.305C293.305 105.326 293.385 105.794 293.547 106.195C293.708 106.591 293.93 106.917 294.211 107.172C294.482 107.422 294.802 107.609 295.172 107.734C295.547 107.859 295.958 107.922 296.406 107.922C297 107.922 297.596 107.805 298.195 107.57C298.799 107.331 299.229 107.096 299.484 106.867H299.562V108.469C299.068 108.677 298.562 108.852 298.047 108.992C297.531 109.133 296.99 109.203 296.422 109.203C294.974 109.203 293.844 108.812 293.031 108.031C292.219 107.245 291.812 106.13 291.812 104.688C291.812 103.26 292.201 102.128 292.977 101.289C293.758 100.451 294.784 100.031 296.055 100.031C297.232 100.031 298.138 100.375 298.773 101.062C299.414 101.75 299.734 102.727 299.734 103.992V104.789ZM298.305 103.664C298.299 102.893 298.104 102.297 297.719 101.875C297.339 101.453 296.758 101.242 295.977 101.242C295.19 101.242 294.562 101.474 294.094 101.938C293.63 102.401 293.367 102.977 293.305 103.664H298.305ZM314.891 104.789H308.461C308.461 105.326 308.542 105.794 308.703 106.195C308.865 106.591 309.086 106.917 309.367 107.172C309.638 107.422 309.958 107.609 310.328 107.734C310.703 107.859 311.115 107.922 311.562 107.922C312.156 107.922 312.753 107.805 313.352 107.57C313.956 107.331 314.385 107.096 314.641 106.867H314.719V108.469C314.224 108.677 313.719 108.852 313.203 108.992C312.688 109.133 312.146 109.203 311.578 109.203C310.13 109.203 309 108.812 308.188 108.031C307.375 107.245 306.969 106.13 306.969 104.688C306.969 103.26 307.357 102.128 308.133 101.289C308.914 100.451 309.94 100.031 311.211 100.031C312.388 100.031 313.294 100.375 313.93 101.062C314.57 101.75 314.891 102.727 314.891 103.992V104.789ZM313.461 103.664C313.456 102.893 313.26 102.297 312.875 101.875C312.495 101.453 311.914 101.242 311.133 101.242C310.346 101.242 309.719 101.474 309.25 101.938C308.786 102.401 308.523 102.977 308.461 103.664H313.461ZM324.414 109H322.945V104.031C322.945 103.63 322.922 103.255 322.875 102.906C322.828 102.552 322.742 102.276 322.617 102.078C322.487 101.859 322.299 101.698 322.055 101.594C321.81 101.484 321.492 101.43 321.102 101.43C320.701 101.43 320.281 101.529 319.844 101.727C319.406 101.924 318.987 102.177 318.586 102.484V109H317.117V100.273H318.586V101.242C319.044 100.862 319.518 100.565 320.008 100.352C320.497 100.138 321 100.031 321.516 100.031C322.458 100.031 323.177 100.315 323.672 100.883C324.167 101.451 324.414 102.268 324.414 103.336V109ZM340.172 104.789H333.742C333.742 105.326 333.823 105.794 333.984 106.195C334.146 106.591 334.367 106.917 334.648 107.172C334.919 107.422 335.24 107.609 335.609 107.734C335.984 107.859 336.396 107.922 336.844 107.922C337.438 107.922 338.034 107.805 338.633 107.57C339.237 107.331 339.667 107.096 339.922 106.867H340V108.469C339.505 108.677 339 108.852 338.484 108.992C337.969 109.133 337.427 109.203 336.859 109.203C335.411 109.203 334.281 108.812 333.469 108.031C332.656 107.245 332.25 106.13 332.25 104.688C332.25 103.26 332.638 102.128 333.414 101.289C334.195 100.451 335.221 100.031 336.492 100.031C337.669 100.031 338.576 100.375 339.211 101.062C339.852 101.75 340.172 102.727 340.172 103.992V104.789ZM338.742 103.664C338.737 102.893 338.542 102.297 338.156 101.875C337.776 101.453 337.195 101.242 336.414 101.242C335.628 101.242 335 101.474 334.531 101.938C334.068 102.401 333.805 102.977 333.742 103.664H338.742ZM349.945 100.273L346.414 109H344.938L341.43 100.273H343.023L345.727 107.219L348.406 100.273H349.945ZM359.164 104.641C359.164 106.062 358.799 107.185 358.07 108.008C357.341 108.831 356.365 109.242 355.141 109.242C353.906 109.242 352.924 108.831 352.195 108.008C351.471 107.185 351.109 106.062 351.109 104.641C351.109 103.219 351.471 102.096 352.195 101.273C352.924 100.445 353.906 100.031 355.141 100.031C356.365 100.031 357.341 100.445 358.07 101.273C358.799 102.096 359.164 103.219 359.164 104.641ZM357.648 104.641C357.648 103.51 357.427 102.672 356.984 102.125C356.542 101.573 355.927 101.297 355.141 101.297C354.344 101.297 353.724 101.573 353.281 102.125C352.844 102.672 352.625 103.51 352.625 104.641C352.625 105.734 352.846 106.565 353.289 107.133C353.732 107.695 354.349 107.977 355.141 107.977C355.922 107.977 356.534 107.698 356.977 107.141C357.424 106.578 357.648 105.745 357.648 104.641ZM362.93 109H361.461V96.8438H362.93V109ZM373.07 109H371.602V108.031C371.107 108.422 370.633 108.721 370.18 108.93C369.727 109.138 369.227 109.242 368.68 109.242C367.763 109.242 367.049 108.964 366.539 108.406C366.029 107.844 365.773 107.021 365.773 105.938V100.273H367.242V105.242C367.242 105.685 367.263 106.065 367.305 106.383C367.346 106.695 367.435 106.964 367.57 107.188C367.711 107.417 367.893 107.583 368.117 107.688C368.341 107.792 368.667 107.844 369.094 107.844C369.474 107.844 369.888 107.745 370.336 107.547C370.789 107.349 371.211 107.096 371.602 106.789V100.273H373.07V109ZM382.414 108.453C381.924 108.688 381.458 108.87 381.016 109C380.578 109.13 380.112 109.195 379.617 109.195C378.987 109.195 378.409 109.104 377.883 108.922C377.357 108.734 376.906 108.453 376.531 108.078C376.151 107.703 375.857 107.229 375.648 106.656C375.44 106.083 375.336 105.414 375.336 104.648C375.336 103.221 375.727 102.102 376.508 101.289C377.294 100.477 378.331 100.07 379.617 100.07C380.117 100.07 380.607 100.141 381.086 100.281C381.57 100.422 382.013 100.594 382.414 100.797V102.43H382.336C381.888 102.081 381.424 101.812 380.945 101.625C380.471 101.438 380.008 101.344 379.555 101.344C378.721 101.344 378.062 101.625 377.578 102.188C377.099 102.745 376.859 103.565 376.859 104.648C376.859 105.701 377.094 106.51 377.562 107.078C378.036 107.641 378.701 107.922 379.555 107.922C379.852 107.922 380.154 107.883 380.461 107.805C380.768 107.727 381.044 107.625 381.289 107.5C381.503 107.391 381.703 107.276 381.891 107.156C382.078 107.031 382.227 106.924 382.336 106.836H382.414V108.453ZM385.883 98.8125H384.227V97.2891H385.883V98.8125ZM385.789 109H384.32V100.273H385.789V109ZM396.133 104.641C396.133 106.062 395.768 107.185 395.039 108.008C394.31 108.831 393.333 109.242 392.109 109.242C390.875 109.242 389.893 108.831 389.164 108.008C388.44 107.185 388.078 106.062 388.078 104.641C388.078 103.219 388.44 102.096 389.164 101.273C389.893 100.445 390.875 100.031 392.109 100.031C393.333 100.031 394.31 100.445 395.039 101.273C395.768 102.096 396.133 103.219 396.133 104.641ZM394.617 104.641C394.617 103.51 394.396 102.672 393.953 102.125C393.51 101.573 392.896 101.297 392.109 101.297C391.312 101.297 390.693 101.573 390.25 102.125C389.812 102.672 389.594 103.51 389.594 104.641C389.594 105.734 389.815 106.565 390.258 107.133C390.701 107.695 391.318 107.977 392.109 107.977C392.891 107.977 393.503 107.698 393.945 107.141C394.393 106.578 394.617 105.745 394.617 104.641ZM394.539 95.9062L392.406 98.8281H391.242L392.641 95.9062H394.539ZM405.711 109H404.242V104.031C404.242 103.63 404.219 103.255 404.172 102.906C404.125 102.552 404.039 102.276 403.914 102.078C403.784 101.859 403.596 101.698 403.352 101.594C403.107 101.484 402.789 101.43 402.398 101.43C401.997 101.43 401.578 101.529 401.141 101.727C400.703 101.924 400.284 102.177 399.883 102.484V109H398.414V100.273H399.883V101.242C400.341 100.862 400.815 100.565 401.305 100.352C401.794 100.138 402.297 100.031 402.812 100.031C403.755 100.031 404.474 100.315 404.969 100.883C405.464 101.451 405.711 102.268 405.711 103.336V109Z" fill="#7CB888"/>
<path d="M3.66211 78.2422V71.2109C7.86133 72.7734 12.6074 73.5547 17.9004 73.5547C24.3262 73.5547 27.5391 71.4062 27.5391 67.1094C27.5391 63.9844 25.5664 62.4219 21.6211 62.4219H15.0586C6.48438 62.4219 2.19727 58.5156 2.19727 50.7031C2.19727 42.1094 8.30078 37.8125 20.5078 37.8125C25.1953 37.8125 29.6387 38.4961 33.8379 39.8633V46.8945C29.6387 45.332 25.1953 44.5508 20.5078 44.5508C13.4766 44.5508 9.96094 46.6016 9.96094 50.7031C9.96094 53.8281 11.6602 55.3906 15.0586 55.3906H21.6211C30.7422 55.3906 35.3027 59.2969 35.3027 67.1094C35.3027 75.8984 29.502 80.293 17.9004 80.293C12.6074 80.293 7.86133 79.6094 3.66211 78.2422ZM48.4863 58.9355C48.4863 68.6816 52.8125 73.5547 61.4648 73.5547C69.9023 73.5547 74.1211 68.6816 74.1211 58.9355C74.1211 49.3457 69.9023 44.5508 61.4648 44.5508C52.8125 44.5508 48.4863 49.3457 48.4863 58.9355ZM40.4297 59.1113C40.4297 44.9121 47.4414 37.8125 61.4648 37.8125C75.2734 37.8125 82.1777 44.9121 82.1777 59.1113C82.1777 73.2324 75.2734 80.293 61.4648 80.293C48.0664 80.293 41.0547 73.2324 40.4297 59.1113ZM97.2949 38.1055V73.2617H113.936V80H89.5312V38.1055H97.2949ZM127.881 58.9355C127.881 68.6816 132.207 73.5547 140.859 73.5547C149.297 73.5547 153.516 68.6816 153.516 58.9355C153.516 49.3457 149.297 44.5508 140.859 44.5508C132.207 44.5508 127.881 49.3457 127.881 58.9355ZM119.824 59.1113C119.824 44.9121 126.836 37.8125 140.859 37.8125C154.668 37.8125 161.572 44.9121 161.572 59.1113C161.572 73.2324 154.668 80.293 140.859 80.293C127.461 80.293 120.449 73.2324 119.824 59.1113ZM202.324 78.2422C198.711 79.6094 194.609 80.293 190.02 80.293C174.98 80.293 167.461 73.0176 167.461 58.4668C167.461 44.6973 174.98 37.8125 190.02 37.8125C194.609 37.8125 198.711 38.4961 202.324 39.8633V46.8945C198.711 45.332 194.805 44.5508 190.605 44.5508C180.547 44.5508 175.518 49.1895 175.518 58.4668C175.518 68.5254 180.547 73.5547 190.605 73.5547C194.805 73.5547 198.711 72.7734 202.324 71.2109V78.2422ZM217.412 38.1055V80H209.648V38.1055H217.412ZM254.912 38.1055V44.7852H233.936V55.332H253.916V62.2754H233.848V73.2617H255.322V80H226.23V38.1055H254.912ZM262.5 80V38.1055H270.264L292.383 68.6328V38.1055H299.854V80H292.09L269.971 48.8281V80H262.5ZM342.07 78.2422C338.457 79.6094 334.355 80.293 329.766 80.293C314.727 80.293 307.207 73.0176 307.207 58.4668C307.207 44.6973 314.727 37.8125 329.766 37.8125C334.355 37.8125 338.457 38.4961 342.07 39.8633V46.8945C338.457 45.332 334.551 44.5508 330.352 44.5508C320.293 44.5508 315.264 49.1895 315.264 58.4668C315.264 68.5254 320.293 73.5547 330.352 73.5547C334.551 73.5547 338.457 72.7734 342.07 71.2109V78.2422ZM357.158 38.1055V80H349.395V38.1055H357.158ZM370.283 80H362.314L380.098 38.1055H388.447L406.611 80H398.262L393.486 68.5742H379.57L382.236 61.8359H390.674L384.082 46.1035L370.283 80Z" fill="#50A060"/>
</svg>
